{"title":"The Walking Dead Complete Season 1 (2010) 1080P WEB-DL","uid":12004267,"size":11601780916,"categoryP":"video","categoryS":"hd___tv_shows","magnet":"?xt=urn:btih:2d43b1616f998171ad9187b8b622987d516ed98f&amp;dn=The+Walking+Dead+Complete+Season+1+%282010%29+1080P+WEB-DL&amp;tr=udp%3A%2F%2Ftracker.openbittorrent.com%3A80&amp;tr=udp%3A%2F%2Fopen.demonii.com%3A1337&amp;tr=udp%3A%2F%2Ftracker.coppersurfer.tk%3A6969&amp;tr=udp%3A%2F%2Fexodus.desync.com%3A6969","seeders":8,"leechers":5,"uploader":"jmanwf","files":6,"time":1433845176,"description":"Storyline\n\nRick Grimes is a former Sheriff's deputy who has been in a coma for several months after being shot while on duty. When he awakens he discovers that the world has been ravished by a zombie epidemic of apocalyptic proportions, and that he seems to be the only person still alive. After returning home to discover his wife and son missing, he heads for Atlanta to search for his family. Narrowly escaping death at the hands of the zombies on arrival in Atlanta he is aided by another survivor, Glenn, who takes Rick to a camp outside the town. There Rick finds his wife Lori and his son, Carl, along with his partner/best friend Shane and a small group of survivors who struggle to fend off the zombie hordes; as well as competing with other surviving groups who are prepared to do whatever it takes to survive in this harsh new world\n\n\nALL 6 Episodes of Season 1\n\n\nALL In MP4\n\n\nVideo\nID : 2\nFormat : AVC\nFormat/Info : Advanced Video Codec\nFormat profile : High@L4\nFormat settings, CABAC : Yes\nFormat settings, ReFrames : 4 frames\nCodec ID : avc1\nCodec ID/Info : Advanced Video Coding\nDuration : 44mn 49s\nBit rate : 5 395 Kbps\nWidth : 1 920 pixels\nHeight : 1 080 pixels\nDisplay aspect ratio : 16:9\nFrame rate mode : Constant\nFrame rate : 23.976 fps\nColor space : YUV\nChroma subsampling : 4:2:0\nBit depth : 8 bits\nScan type : Progressive\nBits/(Pixel*Frame) : 0.109\nStream size : 1.69 GiB (98%)\nLanguage : English\nEncoded date : UTC 2015-05-05 05:10:34\nTagged date : UTC 2015-05-05 05:13:45\nColor range : Limited\nColor primaries : BT.709\nTransfer characteristics : BT.709\nMatrix coefficients : BT.709\n\nAudio\nID : 1\nFormat : AAC\nFormat/Info : Advanced Audio Codec\nFormat profile : LC\nCodec ID : 40\nDuration : 44mn 49s\nBit rate mode : Variable\nBit rate : 107 Kbps\nMaximum bit rate : 125 Kbps\nChannel(s) : 2 channels\nChannel positions : Front: L R\nSampling rate : 48.0 KHz\nCompression mode : Lossy\nStream size : 34.5 MiB (2%)\nLanguage : English\nEncoded date : UTC 2015-05-05 05:10:34\nTagged date : UTC 2015-05-05 05:13:45\n\n\n\n\n &lt;a href=&quot;\nhttp://en.wikipedia.org/wiki/List_of_The_Walking_Dead_episodes#Season_1_.282010.29&quot; rel=&quot;nofollow&quot; target=&quot;_NEW&quot;&gt;\nhttp://en.wikipedia.org/wiki/List_of_The_Walking_Dead_episodes#Season_1_.282010.29&lt;/a&gt;","torrent":{"xt":"urn:btih:2d43b1616f998171ad9187b8b622987d516ed98f","amp;dn":"The+Walking+Dead+Complete+Season+1+%282010%29+1080P+WEB-DL","amp;tr":["udp%3A%2F%2Ftracker.openbittorrent.com%3A80","udp%3A%2F%2Fopen.demonii.com%3A1337","udp%3A%2F%2Ftracker.coppersurfer.tk%3A6969","udp%3A%2F%2Fexodus.desync.com%3A6969"],"infoHash":"2d43b1616f998171ad9187b8b622987d516ed98f","infoHashBuffer":{"type":"Buffer","data":[45,67,177,97,111,153,129,113,173,145,135,184,182,34,152,125,81,110,217,143]},"announce":[],"urlList":[]}}